HIERARCHY
ROOT SpineBase
{
  OFFSET 0.000000 0.000000 0.000000
  CHANNELS 6 Xposition Yposition Zposition Zrotation Xrotation Yrotation
  JOINT SpineMid
  {
    OFFSET 0.000000 31.541369 0.000000
    CHANNELS 3 Zrotation Xrotation Yrotation
    JOINT SpineShoulder
    {
      OFFSET 0.050391 23.499752 -0.762451
      CHANNELS 3 Zrotation Xrotation Yrotation
      JOINT Neck
      {
        OFFSET 0.025244 7.815464 -0.596852
        CHANNELS 3 Zrotation Xrotation Yrotation
        JOINT Head
        {
          OFFSET 3.327987 13.737452 0.648832
          CHANNELS 3 Zrotation Xrotation Yrotation
          End Site
          {
            OFFSET 0 0 0
          }
        }
      }
      JOINT ShoulderLeft
      {
        OFFSET -14.776430 -1.816194 -8.358826
        CHANNELS 3 Zrotation Xrotation Yrotation
        JOINT ElbowLeft
        {
          OFFSET -8.551371 -25.031719 3.675581
          CHANNELS 3 Zrotation Xrotation Yrotation
          JOINT WristLeft
          {
            OFFSET 0.232016 -22.136949 2.040468
            CHANNELS 3 Zrotation Xrotation Yrotation
            JOINT HandLeft
            {
              OFFSET 0.011866 -4.831398 0.909553
              CHANNELS 3 Zrotation Xrotation Yrotation
              JOINT HandTipLeft
              {
                OFFSET -0.555044 -6.338787 1.837971
                CHANNELS 3 Zrotation Xrotation Yrotation
                End Site
                {
                  OFFSET 0 0 0
                }
              }
              JOINT ThumbLeft
              {
                OFFSET 2.429009 0.598417 -3.805424
                CHANNELS 3 Zrotation Xrotation Yrotation
                End Site
                {
                  OFFSET 0 0 0
                }
              }
            }
          }
        }
      }
      JOINT ShoulderRight
      {
        OFFSET 17.133490 -2.969412 5.674214
        CHANNELS 3 Zrotation Xrotation Yrotation
        JOINT ElbowRight
        {
          OFFSET 2.550444 -29.199508 2.205758
          CHANNELS 3 Zrotation Xrotation Yrotation
          JOINT WristRight
          {
            OFFSET 2.989632 -22.886838 -5.493956
            CHANNELS 3 Zrotation Xrotation Yrotation
            JOINT HandRight
            {
              OFFSET -0.965991 -6.674281 -1.542374
              CHANNELS 3 Zrotation Xrotation Yrotation
              JOINT HandTipRight
              {
                OFFSET 0.376319 -7.073303 -0.177422
                CHANNELS 3 Zrotation Xrotation Yrotation
                End Site
                {
                  OFFSET 0 0 0
                }
              }
              JOINT ThumbRight
              {
                OFFSET -4.039059 1.258888 -2.833765
                CHANNELS 3 Zrotation Xrotation Yrotation
                End Site
                {
                  OFFSET 0 0 0
                }
              }
            }
          }
        }
      }
    }
  }
  JOINT HipLeft
  {
    OFFSET -6.989848 1.919698 -5.970974
    CHANNELS 3 Zrotation Xrotation Yrotation
    JOINT KneeLeft
    {
      OFFSET -6.660289 -31.539790 0.488858
      CHANNELS 3 Zrotation Xrotation Yrotation
      JOINT AnkleLeft
      {
        OFFSET -2.863417 -34.571526 5.797651
        CHANNELS 3 Zrotation Xrotation Yrotation
        JOINT FootLeft
        {
          OFFSET 4.907147 -2.998683 -13.260566
          CHANNELS 3 Zrotation Xrotation Yrotation
          End Site
          {
            OFFSET 0 0 0
          }
        }
      }
    }
  }
  JOINT HipRight
  {
    OFFSET 7.320074 0.683513 -0.900595
    CHANNELS 3 Zrotation Xrotation Yrotation
    JOINT KneeRight
    {
      OFFSET -0.813659 -31.073787 4.303763
      CHANNELS 3 Zrotation Xrotation Yrotation
      JOINT AnkleRight
      {
        OFFSET -2.086642 -36.054868 8.684889
        CHANNELS 3 Zrotation Xrotation Yrotation
        JOINT FootRight
        {
          OFFSET 4.741204 -6.963297 -2.304270
          CHANNELS 3 Zrotation Xrotation Yrotation
          End Site
          {
            OFFSET 0 0 0
          }
        }
      }
    }
  }
}
MOTION
Frames: 9
Frame Time: 0.033333
-15.357246 73.590725 318.408278 -0.071001 0.307591 -19.281974 0.168592 -0.266890 19.282557 -0.000000 0.000000 0.000000 -0.000000 0.000000 0.000000 0.000000 0.000000 0.000000 -0.000000 0.000000 0.000000 -0.111954 1.615640 0.008205 1.219306 -7.671276 0.275271 0.151352 15.657500 -0.881687 0.000000 0.000000 0.000000 0.000000 0.000000 0.000000 0.825090 -0.373801 0.032342 0.230759 0.665352 -0.251406 0.666893 2.009339 -0.544261 -8.129393 -6.047157 0.192582 0.000000 0.000000 0.000000 0.000000 0.000000 0.000000 0.168592 -0.266890 19.282557 -0.000000 0.000000 0.000000 -12.692795 -33.912503 8.846437 0.000000 0.000000 0.000000 0.168592 -0.266890 19.282557 -0.000000 0.000000 0.000000 -1.812492 4.734540 3.887473 0.000000 0.000000 0.000000
-15.361181 73.593013 318.421824 -0.090917 0.318003 -19.252584 0.190690 -0.270239 19.253286 -0.000000 0.000000 0.000000 -0.000000 0.000000 0.000000 0.000000 0.000000 0.000000 -0.000000 0.000000 0.000000 0.390862 1.595037 0.047364 -1.875038 -7.591010 -0.465386 6.170201 18.773660 -0.597048 0.000000 0.000000 0.000000 0.000000 0.000000 0.000000 1.100182 -0.672046 0.030824 -0.612609 1.413644 -0.046794 2.299418 1.512843 -0.971303 -8.298271 -1.689685 0.896985 0.000000 0.000000 0.000000 0.000000 0.000000 0.000000 0.190690 -0.270239 19.253286 -0.000000 0.000000 0.000000 -13.591760 -36.597613 9.319983 0.000000 0.000000 0.000000 0.190690 -0.270239 19.253286 -0.000000 0.000000 0.000000 -0.999580 4.883418 3.669223 0.000000 0.000000 0.000000
-15.417254 73.585112 318.414778 -0.158964 0.348761 -19.236667 0.264997 -0.276912 19.237791 -0.000000 0.000000 0.000000 -0.000000 0.000000 0.000000 0.000000 0.000000 0.000000 -0.000000 0.000000 0.000000 0.702863 1.673842 0.072157 -3.349632 -7.623287 -0.810108 7.381836 17.935132 -0.310324 0.000000 0.000000 0.000000 0.000000 0.000000 0.000000 1.159076 -0.488058 0.049808 -1.158693 0.488966 -0.039926 3.937042 5.633994 -1.907682 -7.773620 4.301182 2.109302 0.000000 0.000000 0.000000 0.000000 0.000000 0.000000 0.264997 -0.276912 19.237791 -0.000000 0.000000 0.000000 -13.091070 -35.050002 8.923784 0.000000 0.000000 0.000000 0.264997 -0.276912 19.237791 -0.000000 0.000000 0.000000 -0.203729 4.968994 3.415757 0.000000 0.000000 0.000000
-15.347230 73.575345 318.501692 -0.127253 0.317184 -19.419778 0.225474 -0.256827 19.420636 -0.000000 0.000000 0.000000 0.825218 -0.246346 0.022518 0.000000 0.000000 0.000000 -0.000000 0.000000 0.000000 1.064522 1.817402 0.100427 -5.463910 -7.446396 -1.316428 12.529166 22.678735 -0.582537 0.000000 0.000000 0.000000 0.000000 0.000000 0.000000 1.169155 -0.282846 0.066431 -1.482108 1.215308 0.140159 6.113062 10.116176 -3.551661 -7.287219 7.197305 3.325167 0.000000 0.000000 0.000000 0.000000 0.000000 0.000000 0.225474 -0.256827 19.420636 -0.000000 0.000000 0.000000 -14.513358 -38.986692 9.054010 0.000000 0.000000 0.000000 0.225474 -0.256827 19.420636 -0.000000 0.000000 0.000000 0.328601 5.211644 3.368979 0.000000 0.000000 0.000000
-15.197823 73.568371 318.605987 -0.054072 0.312249 -19.715316 0.156240 -0.275704 19.715840 -0.000000 0.000000 0.000000 1.216695 -0.591351 0.092331 0.000000 0.000000 0.000000 -0.000000 0.000000 0.000000 1.318988 1.978981 0.119721 -7.440226 -6.971023 -1.789727 16.733664 25.476220 -0.742066 0.000000 0.000000 0.000000 0.000000 0.000000 0.000000 -0.000000 0.000000 0.000000 -0.102989 3.887355 0.531930 8.721065 12.408179 -5.433545 -7.800948 6.856363 4.371784 0.000000 0.000000 0.000000 0.000000 0.000000 0.000000 0.156240 -0.275704 19.715840 -0.000000 0.000000 0.000000 -16.549596 -44.244704 8.968342 0.000000 0.000000 0.000000 0.156240 -0.275704 19.715840 -0.000000 0.000000 0.000000 0.403172 4.849134 3.101528 0.000000 0.000000 0.000000
-14.937142 73.562681 318.745651 0.077015 0.310767 -20.133634 0.034661 -0.318286 20.133521 -0.000000 0.000000 0.000000 1.670415 -0.974001 0.171939 0.000000 0.000000 0.000000 -0.000000 0.000000 0.000000 1.446973 1.801709 0.129684 -9.223554 -6.237355 -2.177671 20.642147 28.820165 -1.140246 0.000000 0.000000 0.000000 0.000000 0.000000 0.000000 0.901891 0.928248 0.141894 -0.953473 4.843390 0.605836 10.467343 15.425882 -6.984527 -7.645451 7.408346 5.293748 0.000000 0.000000 0.000000 0.000000 0.000000 0.000000 0.034661 -0.318286 20.133521 -0.000000 0.000000 0.000000 -14.962724 -39.718824 8.139092 0.000000 0.000000 0.000000 -0.567424 0.675367 20.074538 0.224498 -1.139933 0.063093 -0.003780 3.988139 2.686552 0.000000 0.000000 0.000000
-14.585558 73.508965 318.909468 0.220498 0.311151 -20.531042 -0.097370 -0.368718 20.530130 -0.000000 0.000000 0.000000 2.181438 -1.395880 0.263076 0.000000 0.000000 0.000000 -0.000000 0.000000 0.000000 1.154079 1.544769 0.107135 -8.498252 -3.968790 -1.872404 19.955162 23.997503 0.076371 0.000000 0.000000 0.000000 0.000000 0.000000 0.000000 1.118295 2.033133 0.242357 -0.909087 5.699077 0.662914 12.220515 16.973282 -8.272743 -8.550042 5.370237 5.823322 0.000000 0.000000 0.000000 0.000000 0.000000 0.000000 -1.015432 -0.276742 20.426106 0.828220 -0.406612 0.101791 -17.091496 -43.963812 6.297807 0.000000 0.000000 0.000000 -1.573189 0.887664 20.361729 0.946860 -1.691190 0.189061 -0.650721 3.378424 2.520252 0.000000 0.000000 0.000000
-14.353819 73.490716 319.021754 0.342885 0.333481 -20.983505 -0.200734 -0.434149 20.981747 -0.000000 0.000000 0.000000 2.256047 -1.646967 0.326658 0.000000 0.000000 0.000000 -0.000000 0.000000 0.000000 0.661691 1.390467 0.067608 -5.895426 -2.498865 -1.246825 14.602802 16.434614 0.940250 0.000000 0.000000 0.000000 0.000000 0.000000 0.000000 1.105272 2.926621 0.311281 -0.134175 7.242464 0.680380 12.339131 16.120456 -8.606563 -7.748729 1.351979 6.173906 0.000000 0.000000 0.000000 0.000000 0.000000 0.000000 -1.316909 -0.440672 20.874125 1.045196 -0.391661 0.102673 -16.602181 -42.767103 6.217086 0.000000 0.000000 0.000000 -2.404344 1.125368 20.727968 1.510134 -2.237894 0.296571 -1.339057 2.821831 2.397035 0.000000 0.000000 0.000000
-14.280979 73.513510 319.064552 0.402343 0.390425 -21.533519 -0.230968 -0.510846 21.531119 -0.000000 0.000000 0.000000 1.764724 -1.766563 0.373513 0.000000 0.000000 0.000000 -0.000000 0.000000 0.000000 0.136395 1.250097 0.024211 -2.938953 -1.105776 -0.612128 7.508453 7.593768 0.945826 0.000000 0.000000 0.000000 0.000000 0.000000 0.000000 -1.634274 0.462642 -0.076573 5.476471 15.557875 0.731188 10.069896 11.757608 -8.293829 -7.978340 -5.921479 6.260302 0.000000 0.000000 0.000000 0.000000 0.000000 0.000000 -1.251788 -0.616080 21.447471 0.988547 -0.275371 0.075984 -14.211738 -37.443634 7.422592 0.000000 0.000000 0.000000 -3.210129 1.169934 21.179218 2.172817 -2.642292 0.419158 -1.851698 2.475366 2.347241 0.000000 0.000000 0.000000
